<?xml version="1.0" standalone="no"?>
<!DOCTYPE svg PUBLIC "-//W3C//DTD SVG 1.1//EN" "http://www.w3.org/Graphics/SVG/1.1/DTD/svg11.dtd" >
<!--
2013-9-30: Created.
-->
<svg>
<metadata>
Created by iconfont
</metadata>
<defs>

<font id="iconfont" horiz-adv-x="1024" >
  <font-face
    font-family="iconfont"
    font-weight="500"
    font-stretch="normal"
    units-per-em="1024"
    ascent="896"
    descent="-128"
  />
    <missing-glyph />
    
    <glyph glyph-name="guanyuwomen" unicode="&#58887;" d="M512 812C230.4 812 0 581.6 0 300s230.4-512 512-512 512 230.4 512 512S793.6 812 512 812zM512-148c-249.6 0-448 198.4-448 448 0 249.6 198.4 448 448 448s448-198.4 448-448C960 50.4 761.6-148 512-148zM512 652C390.4 652 288 549.6 288 428S390.4 204 512 204s224 102.4 224 224S633.6 652 512 652zM512 268C422.4 268 352 338.4 352 428c0 89.6 70.4 160 160 160s160-70.4 160-160C672 338.4 601.6 268 512 268zM204.8-39.2C236.8 101.6 364.8 204 512 204s275.2-102.4 307.2-243.2l64 0c-38.4 172.8-192 307.2-377.6 307.2s-339.2-128-377.6-307.2L204.8-39.2z"  horiz-adv-x="1024" />

    
    <glyph glyph-name="yanjing" unicode="&#58977;" d="M515.2 672c-307.2 0-492.8-313.6-492.8-313.6s214.4-304 492.8-304 492.8 304 492.8 304S822.4 672 515.2 672zM832 243.2c-102.4-86.4-211.2-140.8-320-140.8s-217.6 51.2-320 140.8c-35.2 32-70.4 64-99.2 99.2-6.4 6.4-9.6 12.8-16 19.2 3.2 6.4 9.6 12.8 12.8 19.2 25.6 35.2 57.6 70.4 92.8 102.4 99.2 89.6 208 144 329.6 144s230.4-54.4 329.6-144c35.2-32 64-67.2 92.8-102.4 3.2-6.4 9.6-12.8 12.8-19.2-3.2-6.4-9.6-12.8-16-19.2C902.4 310.4 870.4 275.2 832 243.2zM512 550.4c-96 0-169.6-76.8-169.6-169.6 0-96 76.8-169.6 169.6-169.6 96 0 169.6 76.8 169.6 169.6C681.6 473.6 604.8 550.4 512 550.4zM512 256c-67.2 0-121.6 54.4-121.6 121.6 0 67.2 54.4 121.6 121.6 121.6 67.2 0 121.6-54.4 121.6-121.6C633.6 313.6 579.2 256 512 256z"  horiz-adv-x="1024" />

    
    <glyph glyph-name="fanhui" unicode="&#59135;" d="M700.371228 501.474528 174.028569 501.474528l255.952416 227.506551c12.389168 11.011798 13.505595 29.980825 2.492774 42.369993-11.011798 12.386098-29.977755 13.506619-42.367947 2.492774L76.425623 495.024629c-6.960529-5.496178-11.434423-14.003945-11.434423-23.561625 0-0.013303 0.001023-0.026606 0.001023-0.039909 0-0.01228-0.001023-0.025583-0.001023-0.037862 0-0.473791 0.01535-0.946558 0.037862-1.418302 0.001023-0.016373 0.001023-0.032746 0.001023-0.049119 0.39295-8.030907 3.992941-15.595186 10.034541-20.962427l315.040163-280.028764c5.717212-5.083785 12.83533-7.580652 19.925818-7.580652 8.274454 0 16.514115 3.403516 22.442128 10.07445 11.011798 12.387122 9.896394 31.357172-2.492774 42.367947l-256.128425 227.665163 526.518668 0c109.219517 0 198.075241-88.855724 198.075241-198.075241s-88.855724-198.075241-198.075241-198.075241L354.324888 45.303045c-16.57449 0-30.011524-13.437034-30.011524-30.011524s13.437034-30.011524 30.011524-30.011524l346.046341 0c142.31631 0 258.098289 115.783003 258.098289 258.098289S842.686515 501.474528 700.371228 501.474528z"  horiz-adv-x="1024" />

    
    <glyph glyph-name="yanzhengma2" unicode="&#58966;" d="M918.090878 628.317425c-36.099173 2.492774-72.380494 9.273201-103.496166 19.237133-10.075473 3.03001-20.161179 6.388501-30.306236 10.021238-21.385053 6.29845-50.481741 18.791995-83.506902 36.592406-0.354064 0.161682-0.704035 0.364297-1.052982 0.552585-7.763824 4.190439-15.706727 8.66331-23.793916 13.412474-10.898211 6.243191-21.689998 12.902868-32.462343 19.84293-0.417509 0.281409-0.829901 0.533143-1.237177 0.806365-7.738241 4.997827-15.443737 10.158361-23.092951 15.518438-4.976338 3.413749-9.959839 7.051603-14.945387 10.659781-3.748371 2.7486-7.496741 5.330402-11.248182 8.16496-27.427676 20.48659-54.499242 43.471071-79.849606 68.233034-25.350364-24.761963-52.426023-47.746444-79.853699-68.233034-3.744277-2.833535-7.498788-5.41636-11.246135-8.16496-4.991688-3.608178-9.970072-7.246031-14.945387-10.659781-7.652284-5.360078-15.356756-10.520611-23.094998-15.518438-0.405229-0.273223-0.824785-0.524956-1.232061-0.806365-10.780531-6.941086-21.564132-13.599739-32.464389-19.84293-8.090259-4.748141-16.030092-9.222035-23.798009-13.412474-0.345877-0.187265-0.704035-0.38988-1.046842-0.552585-33.025161-17.800411-62.127989-30.292933-83.515089-36.592406-10.138918-3.637854-20.216437-6.992251-30.302143-10.021238-31.118741-9.963932-67.390853-16.744359-103.496166-19.237133l-0.086981 0c1.052982-16.181541 2.13871-37.645388 3.403516-60.882626 0.200568 0 0.434905 0 0.669242 0.035816 6.091742-86.72827 23.472598-210.093972 49.694819-282.57782 1.174756-3.166109 2.172479-6.471388 3.347235-9.605775 0.550539-1.473561 1.196245-2.837628 1.750877-4.303003 62.763462-162.03849 171.776272-279.94076 302.786071-323.156004l0-0.450255c17.316387-5.716188 31.905664-9.249665 43.426045-11.467169 11.518335 2.223644 26.115797 5.750981 43.432185 11.467169l0 0.450255c131.011846 43.215244 240.017492 161.117514 302.788118 323.156004 0.554632 1.475608 1.198292 2.829442 1.757017 4.303003 1.166569 3.134387 2.168386 6.439666 3.339048 9.605775 26.227338 72.484871 43.60717 195.84955 49.700959 282.57782 0.236384-0.033769 0.473791-0.033769 0.669242-0.033769 1.26276 23.235191 2.343371 44.696991 3.3984 60.880579L918.090878 628.317425zM870.734314 586.425316l-0.509606-9.497305c-0.51984-2.166339-0.86367-4.379751-1.02126-6.622838-5.674233-80.730673-21.61018-200.398146-47.276746-271.336802-0.710175-1.920746-1.375324-3.885494-2.034333-5.847172-0.411369-1.221828-0.816598-2.449795-1.445932-4.049223-0.524956-1.232061-1.036609-2.467191-1.38351-3.396353C758.704798 135.029602 658.351206 26.565285 541.728068-11.903865c-1.886977-0.620124-3.708462-1.359974-5.458315-2.200108-7.915273-2.473331-15.665795-4.582365-23.177885-6.302543-7.460925 1.709945-15.179724 3.810792-23.077601 6.272867-1.77646 0.855484-3.626597 1.599428-5.544273 2.230808C367.840716 26.565285 267.48917 135.029602 209.243605 285.400355c-0.458441 1.206478-0.940418 2.37714-1.692548 4.14746-0.443092 1.178849-0.840134 2.394537-1.251503 3.610224-0.663102 1.963725-1.332345 3.931542-1.934049 5.560646-25.759687 71.198575-41.694611 190.869119-47.364751 271.582395-0.157589 2.251274-0.50142 4.473895-1.027399 6.644327l-0.497327 9.296737c-0.078795 1.493004-0.157589 2.974751-0.236384 4.446265 24.62177 3.805676 48.370661 9.30083 69.956282 16.21838 10.130731 3.045359 20.419052 6.435573 31.414477 10.353812 25.206078 7.576559 56.437383 21.220301 90.478687 39.532365 0.590448 0.302899 1.155313 0.603751 1.654686 0.877997 8.228405 4.439102 16.647145 9.182127 24.809035 13.975293 10.709923 6.132674 21.985734 13.023618 34.475186 21.064758 0.349971 0.224104 0.952698 0.611937 1.296529 0.846274 8.204869 5.300726 16.375969 10.776438 24.12035 16.205077 4.546549 3.114944 9.094122 6.402827 13.650905 9.699919l2.443655 1.769296 4.041036 2.912329c2.581802 1.847068 5.16258 3.699252 7.535627 5.495154 17.894555 13.369495 35.278481 27.453259 51.984978 42.119283 16.687054-14.650675 34.022884-28.704762 51.797713-41.980113 2.565429-1.936095 5.127787-3.776 7.691169-5.609765l4.27742-3.085268 1.552356-1.125637c4.77884-3.462868 9.56075-6.92369 13.94971-9.928117 8.117888-5.693676 16.301268-11.17348 23.730471-15.962553l2.059915-1.345648c12.386098-7.980765 23.663956-14.874779 34.072003-20.836561 8.576329-5.03262 16.994046-9.774621 25.015743-14.103206 0.399089-0.217964 0.950651-0.50756 1.534959-0.808412 34.167171-18.404162 65.523319-32.114418 90.813309-39.71963 11.014868-3.921309 21.271466-7.30129 30.587646-10.091846 22.11774-7.083326 46.068222-12.641925 70.781066-16.470113C870.888833 589.282387 870.812085 587.857944 870.734314 586.425316zM711.261253 484.344383 476.928227 244.168278 356.968088 367.132844c-8.311293 8.515954-21.772886 8.515954-30.084179 0-8.311293-8.523117-8.311293-22.320355 0-30.839379l135.00274-138.378627c4.155646-4.260024 9.597589-6.390547 15.041578-6.390547 5.443989 0 10.886955 2.130524 15.040555 6.390547l249.374604 255.592212c8.311293 8.515954 8.311293 22.316262 0 30.837332C733.034139 492.862383 719.571523 492.862383 711.261253 484.344383z"  horiz-adv-x="1024" />

    
    <glyph glyph-name="xinwen2" unicode="&#58906;" d="M790.679535 743.180476l-358.157169 0c-56.516178 0-102.33062-45.814442-102.33062-102.33062l0-88.174202L131.242602 552.675654l0-42.38125 0-8.78406 0-372.313587c0-56.516178 45.814442-102.33062 102.33062-102.33062l0.005117 0 16.905018 0 13.814634 0 14.924921 0 511.457648 0c56.516178 0 102.33062 45.814442 102.33062 102.33062l0 511.653099C893.010155 697.365011 847.19469 743.180476 790.679535 743.180476zM330.387197 149.662881c0-39.561018-32.070416-71.631434-71.631434-71.631434L254.039345 78.031447c-39.561018 0-71.631434 32.070416-71.631434 71.631434L182.407911 415.133068l0.195451 0 0 86.377276 147.588383 0 0-241.758136 0.195451 0L330.387197 149.662881zM841.844845 149.662881c0-39.561018-32.070416-71.631434-71.631434-71.631434l-402.353764 0c8.707312 15.051811 13.69286 32.525788 13.69286 51.16531L381.552507 354.913545l-0.195451 0L381.357056 620.383732c0 39.561018 32.070416 71.631434 71.631434 71.631434l317.224922 0c39.561018 0 71.631434-32.070416 71.631434-71.631434L841.844845 149.662881zM765.09688 557.10964l-306.99186 0c-14.128789 0-25.582655-11.453866-25.582655-25.582655s11.453866-25.582655 25.582655-25.582655l306.99186 0c14.128789 0 25.582655 11.453866 25.582655 25.582655S779.225669 557.10964 765.09688 557.10964zM765.09688 410.776853l-306.99186 0c-14.128789 0-25.582655-11.453866-25.582655-25.582655 0-14.128789 11.453866-25.582655 25.582655-25.582655l306.99186 0c14.128789 0 25.582655 11.453866 25.582655 25.582655C790.679535 399.322987 779.225669 410.776853 765.09688 410.776853zM765.09688 262.397455l-306.99186 0c-14.128789 0-25.582655-11.453866-25.582655-25.582655s11.453866-25.582655 25.582655-25.582655l306.99186 0c14.128789 0 25.582655 11.453866 25.582655 25.582655S779.225669 262.397455 765.09688 262.397455z"  horiz-adv-x="1024" />

    
    <glyph glyph-name="xiugai" unicode="&#59042;" d="M383.754 249.754l181.095 51.415L435.497 429.729 383.754 249.754zM867.434 601.908 738.081 730.471 453.5 447.641l129.352-128.55L867.434 601.908zM829.739 125.828c0-44.671-36.226-80.913-80.911-80.913L263.344 44.915c-44.697 0-80.914 36.242-80.914 80.913L182.43 611.313c0 44.697 36.217 80.913 80.914 80.913l323.655 0 80.915 80.915L236.373 773.141c-74.487 0-134.856-60.369-134.856-134.857l0-539.426c0-74.489 60.37-134.856 134.856-134.856l539.426 0c74.474 0 134.856 60.369 134.856 134.856L910.655 530.4l-80.916-80.915L829.739 125.828zM927.554 709.901l-80.85 80.347c-13.395 13.315-35.835 12.59-50.124-1.606l-38.812-38.561 129.354-128.562 38.81 38.573C940.221 674.289 940.946 696.585 927.554 709.901z"  horiz-adv-x="1024" />

    
    <glyph glyph-name="pinpai1" unicode="&#59415;" d="M711.716 546.846 835.674 746.738 959.628 546.846 711.716 546.846ZM548.832 758.19 796.738 758.19 672.786 551.452 548.832 758.19ZM386.748 546.846 510.702 746.738 634.656 546.846 386.748 546.846ZM226.532 758.19 474.438 758.19 350.484 551.452 226.532 758.19ZM63.64 546.846 187.592 746.738 311.552 546.846 63.64 546.846ZM495.642 11.236 66.252 513.968 323.432 513.968 495.642 11.236ZM653.032 513.968 522.202 10.186 370.126 513.968 653.032 513.968ZM958.686 513.968 545.318 11.236 703.5 513.968 958.686 513.968Z"  horiz-adv-x="1024" />

    
    <glyph glyph-name="dingdan2" unicode="&#58890;" d="M598.857 767.255h-174.127c-21.365 0-38.435-18.59-38.435-41.567 0-23.026 17.112-41.668 38.435-41.668h175.198c20.283 0 37.384 18.642 37.384 41.668 0.011 22.975-17.082 41.567-38.456 41.567v0 0zM699.855 725.484c0-54.14-9.942-83.541-62.655-83.541l-250.621-0c-52.478 0-62.655 38.701-62.655 83.541h-83.542c-35.182 0-62.655-25.749-62.655-62.656v-563.898c0-41.403 22.537-62.656 62.655-62.656h543.013c33.469 0 62.656 20.406 62.656 62.656l0 563.898c0 40.761-23.333 62.656-62.656 62.656l-83.541 0zM679.379 203.439h-330.816c-12.187 0-24.353 12.513-24.353 22.72 0 10.178 10.3 18.896 22.496 18.896h329.858c12.187 0 22.487-7.922 23.414-18.896 0-10.219-8.413-22.72-20.599-22.72v0 0zM674.994 349.797h-331.367c-12.217 0-19.988 10.964-19.988 21.181 0 10.207 10.32 20.426 22.527 20.426h330.419c12.216 0 22.536-9.464 23.455-20.426 0-10.218-12.861-21.181-25.046-21.181v0 0zM674.994 495.942h-331.367c-12.217 0-19.988 10.962-19.988 21.17 0 10.219 10.32 20.436 22.527 20.436h330.419c12.216 0 22.536-9.464 23.455-20.436 0-10.207-12.861-21.17-25.046-21.17v0 0zM674.994 495.942z"  horiz-adv-x="1024" />

    
    <glyph glyph-name="biyan" unicode="&#58897;" d="M840.46 440l-40.1 36.6c11.8 14.8 20.3 28.9 24.9 40.9l0.4 1.2c0.2 0.6 0.5 1.2 0.6 1.8l0.8 4.3 0.2 1.5c0 0 0 0.1 0 0.1 0 11.7-6.8 18.3-18.5 18.3-8.1 0-8.1-1.2-14.9-7.8 0 0-2.2-3.7-3.5-6.3l-3-4.3c-28.5-63.6-130.6-146-261.4-146-133.2 0-242.4 90-263.2 149.5l-2.8 6.4-1.9 3.1c-3.8 5.5-5.2 8.3-12.2 8.3-11.7 0-21.2-9.5-21.2-21.1 0-2.7 0.6-4.9 1.3-6.8 0.3-1 0.8-2 0.9-2 4.6-12 13-26 24.8-40.8L211.46 440c-5.4-5-5.8-13.4-0.9-18.9 2.6-2.9 6.2-4.4 9.9-4.4 3.2 0 6.4 1.2 9 3.5l39.8 36.3c22.1-23 51.3-46.5 85.7-66.2L326.66 344c-3.8-6.3-1.8-14.5 4.5-18.4 2.2-1.3 4.6-1.9 6.9-1.9 4.5 0 8.9 2.3 11.4 6.4l29.1 47.9c39.8-19.2 85.2-32.7 134-34.8l0-53.5c0-7.4 6-13.4 13.4-13.4 7.4 0 13.4 6 13.4 13.4l0 53.5c48.7 2.1 94.2 15.6 134 34.8l29.1-47.9c2.5-4.1 6.9-6.4 11.4-6.4 2.4 0 4.8 0.6 6.9 1.9 6.3 3.8 8.3 12.1 4.5 18.4l-28.3 46.5c34.4 19.6 63.6 43.1 85.7 66.1l39.7-36.3c2.6-2.3 5.8-3.5 9-3.5 3.6 0 7.2 1.5 9.9 4.4C846.26 426.6 845.86 435.1 840.46 440z"  horiz-adv-x="1099" />

    
    <glyph glyph-name="mima" unicode="&#58915;" d="M712.06912 521.60512 329.80992 521.60512l0 70.144c0 88.28928 77.37344 157.47072 176.3328 158.02368 96.70656-0.512 169.53344-68.1984 169.53344-158.02368l0-35.1232c0-9.66656 8.13056-17.55136 18.20672-17.55136 10.07616 0 18.20672 7.82336 18.20672 17.55136l0 35.1232c0 109.40416-87.87968 192.02048-204.75904 193.08544l-2.33472 0c-118.784-1.06496-211.59936-85.48352-211.59936-193.08544l0-71.9872c-61.58336-8.66304-109.24032-59.392-109.24032-121.09824l0-228.20864c0-67.82976 57.1392-122.90048 127.44704-122.90048l400.4864 0c70.3488 0 127.44704 55.07072 127.44704 122.90048L839.53664 398.66368C839.51616 466.45248 782.31552 521.60512 712.06912 521.60512L712.06912 521.60512 712.06912 521.60512zM803.10272 170.51648c0-48.4352-40.81664-87.77728-91.0336-87.77728L311.6032 82.7392c-50.21696 0-90.97216 39.36256-90.97216 87.77728L220.63104 398.70464c0 48.4352 40.81664 87.73632 90.97216 87.73632l400.4864 0c50.2784 0 91.0336-39.36256 91.0336-87.73632L803.1232 170.51648 803.10272 170.51648zM511.81568 416.27648c-60.2112 0-109.24032-47.22688-109.24032-105.34912 0-52.16256 39.66976-95.29344 91.40224-103.54688-0.04096-0.63488-0.38912-1.10592-0.38912-1.7408l0-52.67456c0-9.728 8.13056-17.6128 18.20672-17.6128s18.20672 7.8848 18.20672 17.6128L530.00192 205.6192c0 0.65536-0.32768 1.10592-0.38912 1.7408 51.75296 8.25344 91.40224 51.38432 91.40224 103.54688C621.056 369.02912 572.06784 416.27648 511.81568 416.27648L511.81568 416.27648 511.81568 416.27648zM511.81568 240.68096c-40.1408 0-72.82688 31.55968-72.82688 70.18496 0 38.74816 32.72704 70.18496 72.82688 70.18496 40.09984 0 72.72448-31.51872 72.72448-70.18496C584.64256 272.22016 551.95648 240.68096 511.81568 240.68096L511.81568 240.68096 511.81568 240.68096z"  horiz-adv-x="1024" />

    
    <glyph glyph-name="youxiang" unicode="&#58916;" d="M830.455808 578.574336c9.168896 6.85056 22.183936 4.583424 28.29312-3.844096 6.873088-9.168896 4.585472-22.181888-4.583424-28.291072L529.94048 310.933504c-7.63904-5.347328-16.807936-4.585472-23.709696 0L181.266432 546.43712c-9.168896 6.111232-10.696704 19.122176-4.583424 28.291072 6.90176 8.42752 19.124224 10.694656 28.291072 3.844096l312.743936-226.33472L830.455808 578.574336zM171.33568 719.245312l692.760576 0c22.943744 0 43.595776-9.168896 58.116096-24.446976 14.5408-14.5408 23.7056-35.19488 23.7056-57.37472l0-516.134912c0-22.153216-9.166848-42.805248-23.7056-58.109952l0 0 0 0 0 0c-15.282176-14.518272-35.172352-23.683072-58.116096-23.683072L171.33568 39.49568c-22.183936 0-42.809344 9.166848-57.348096 23.683072-15.280128 15.304704-24.471552 35.190784-24.471552 58.109952L89.516032 637.425664c0 22.17984 9.191424 42.83392 24.471552 57.37472l0 0C128.526336 710.078464 149.153792 719.245312 171.33568 719.245312L171.33568 719.245312zM864.096256 678.729728 171.33568 678.729728c-11.460608 0-21.417984-4.583424-29.057024-12.222464l0 0c-7.63904-7.63904-12.224512-17.598464-12.224512-29.0816l0-516.134912c0-11.45856 4.585472-22.153216 12.224512-29.054976 7.63904-7.641088 17.596416-12.222464 29.057024-12.222464l692.760576 0c11.485184 0 22.181888 4.579328 29.822976 12.222464l0 0c6.873088 6.899712 11.483136 17.596416 11.483136 29.054976L905.402368 637.425664c0 11.483136-4.610048 21.44256-11.483136 29.0816C886.278144 674.146304 875.58144 678.729728 864.096256 678.729728L864.096256 678.729728zM506.230784 310.933504c-2.265088 1.527808-3.792896 3.055616-4.583424 4.583424"  horiz-adv-x="1024" />

    
    <glyph glyph-name="sousuo" unicode="&#58905;" d="M980.695552-36.627543 818.158012 137.132868C884.038724 216.402756 920.267981 315.217708 920.267981 419.242411 920.267981 663.28334 721.501184 861.866667 477.166592 861.866667 232.900164 861.866667 34.133333 663.317391 34.133333 419.242411 34.133333 175.167431 232.900164-23.381844 477.200657-23.381844 541.206835-23.347794 602.929527-9.999943 660.630528 16.2531 677.773824 24.050696 685.340058 44.242725 677.535266 61.336146 669.730441 78.497667 649.417523 86.09096 632.410556 78.225263 583.57091 56.024246 531.357116 44.753484 477.166592 44.719434 270.458641 44.719434 102.297532 212.725286 102.297532 419.242411 102.297532 625.725484 270.458641 793.76539 477.166592 793.76539 683.908608 793.76539 852.103782 625.759536 852.103782 419.242411 852.103782 322.027837 814.98839 229.92086 747.642129 159.878695 734.588689 146.32654 735.031774 124.772486 748.562364 111.731091 749.584828 110.743623 750.914014 110.369066 752.072806 109.5178 752.993041 108.155774 753.470191 106.589445 754.628983 105.363622L930.901606-83.072614C937.581705-90.257299 946.681617-93.866667 955.78153-93.866667 964.131669-93.866667 972.481775-90.83616 979.05961-84.672994 992.794692-71.904004 993.544499-50.34995 980.695552-36.627543L980.695552-36.627543Z"  horiz-adv-x="1024" />

    
    <glyph glyph-name="love" unicode="&#58919;" d="M752.448 728.512c21.056-0.448 41.92-3.52 61.824-10.432 14.592-5.12 28.544-12.16 41.28-20.992 10.688-7.424 20.544-16.192 29.184-25.984 20.055-22.511 34.344-50.579 40.296-81.61 13.848-22.39 9.368-87.158-8.616-144.822-20.352-65.152-57.792-124.096-101.696-175.808-79.808-93.952-182.272-166.528-289.344-226.176l-2.496-1.216c-2.997-1.254-6.479-1.983-10.132-1.983-1.302 0-2.583 0.093-3.835 0.272-2.352 0.367-2.928 0.687-5.296 1.455-6.336 2.88-12.416 6.336-18.496 9.6-104.64 56.64-204.544 126.528-281.536 218.24-43.84 52.352-80.576 112.448-99.072 178.624-16.96 60.736-18.304 129.6 12.8 186.24 15.738 28.738 38.998 51.652 67.157 66.537-3.87 1.264 27.985 14.587 62.865 16.709 9.369 1.746 30.681 0.786 51.353-3.118 35.712-6.784 69.44-22.016 100.096-41.344 51.968-32.704 95.616-76.992 134.080-124.544l1.6-2.24c2.523-4.019 4.020-8.905 4.020-14.14 0-0.587-0.019-1.169-0.056-1.747-1.24-13.189-12.321-23.491-25.809-23.491-2.058 0-4.059 0.24-5.979 0.693-5.719 1.612-10.681 4.972-14.283 9.468-0.901 0.993-3.973 5.089-7.237 8.993-70.888 84.672-156.698 154.195-253.777 205.16 210.129-155.304 174.545-121.768 133.073-97.064-24.128 14.272-50.432 25.728-78.208 30.464-7.524 1.441-16.178 2.265-25.024 2.265-7.341 0-14.549-0.567-21.583-1.661-15.037-2.44-29.187-7.976-41.643-15.933-8.155-3.389-23.64-18.326-33.684-36.667-18.995-19.171-24.435-69.731-18.099-114.595 1.216-8.448 2.816-16.832 4.8-25.088 2.752-11.52 6.208-22.848 10.176-33.984 20.736-57.408 56.064-108.928 96.768-153.92 70.784-78.272 159.104-138.816 251.392-188.736l3.264-1.728c154.698 87.73 283.192 204.216 382.029 343.257-130.648-164.15-48.018-59.905 6.183 59.947-88.435-153.028-53.555-99.972-34.419-41.092 8.128 25.024 13.376 51.2 13.76 77.504 0.040 1.397 0.063 3.042 0.063 4.692 0 19.013-3.019 37.322-8.605 54.472-6.876 20.972-19.182 39.849-35.246 54.727 1.362 1.555-18.647 15.798-41.796 22.826-21.424 13.748-71.536 8.948-114.608-5.708-39.933-13.829-74.356-34.142-103.814-59.977 7.816 13.15-33.904-21.535-67.601-63.002 27.16 39.817-25.359-14.372-64.855-77.54l109.806 126.087c-3.967-2.509-8.777-4.033-13.936-4.123 0.625 0.022 0.4 0.019 0.175 0.019-14.209 0-25.728 11.519-25.728 25.728 0 1.108 0.070 2.2 0.206 3.271 0.942 6.307 4.056 11.883 8.557 15.957 3.398 2.988 8.582 6.892 13.702 10.924 52.288 40.192 112.384 74.048 178.432 83.776 10.048 1.472 20.096 2.24 30.208 2.56h7.36z"  horiz-adv-x="1024" />

    
    <glyph glyph-name="biaoqian" unicode="&#58941;" d="M579.50384-24.52891201l340.114737 340.11112501a135.932464 135.932464 0 0 1 39.758503 96.155899L959.337343 695.5818879999999l0 0.018063C959.337343 770.724231 898.59057 831.69858701 823.451841 831.698587l-283.673992 0a136.091412 136.091412 0 0 1-96.199248-39.881326l-340.241173-340.230335a136.022775 136.022775 0 0 1 0-192.369598l283.76069-283.74624c53.131752-53.12813899 139.277583-53.128139 192.405722-1e-8z m-147.192436 45.20967301l-283.760691 283.746241a72.064544 72.064544 0 0 0 0 101.92496401l340.241173 340.21227299A72.187367 72.187367 0 0 0 539.781462 767.758418L823.451841 767.758418A72.021195 72.021195 0 0 0 895.397174 695.603563l0.039737-283.843776a71.887535 71.887535 0 0 0-21.053294-50.935389l-340.1039-340.114737a72.104281 72.104281 0 0 0-101.968313-0.0289zM768.00090301 511.997742c0 70.69543-57.307731 128.003161-128.00316101 128.00316101S512.001806 582.693172 512.001806 511.997742s57.30773099-127.999548 127.999549-127.999548S768.000903 441.309537 768.00090301 511.997742z m-173.29592001-45.296371a64.059379 64.059379 0 1 0 45.292759-18.759396 63.640337 63.640337 0 0 0-45.292759 18.763008z"  horiz-adv-x="1024" />

    
    <glyph glyph-name="cha" unicode="&#58898;" d="M909.812-66.028c-13.094 0-26.188 4.996-36.179 14.987l-799.675 799.673c-19.98 19.98-19.98 52.378 0 72.359 19.983 19.98 52.38 19.98 72.36 0l799.672-799.674c19.981-19.981 19.981-52.378 0-72.36-9.99-9.99-23.084-14.985-36.179-14.985zM110.138-66.028c-13.094 0-26.188 4.996-36.179 14.987-19.98 19.98-19.98 52.378 0 72.359l799.673 799.672c19.982 19.98 52.377 19.98 72.36 0 19.98-19.981 19.98-52.378 0-72.36l-799.676-799.671c-9.99-9.99-23.084-14.986-36.179-14.986z"  horiz-adv-x="1024" />

    
    <glyph glyph-name="duihao" unicode="&#58931;" d="M380.416 73.856c-10.432 0-20.864 3.968-28.8 11.968L75.968 361.408c-15.936 15.936-15.936 41.664 0 57.6 15.872 15.872 41.664 15.872 57.536 0L380.416 172.16l510.08 510.016c15.872 15.936 41.664 15.936 57.536 0 15.936-15.936 15.936-41.664 0-57.6L409.216 85.76c-7.936-7.936-18.368-11.904-28.8-11.904z"  horiz-adv-x="1024" />

    
    <glyph glyph-name="shoucang" unicode="&#59047;" d="M739.328 82.944c-2.048 10.24 6.144 22.528 16.384 24.576s22.528-6.144 24.576-16.384l12.288-65.536c6.144-38.912-24.576-61.44-59.392-43.008l-221.184 112.64-219.136-114.688c-34.816-18.432-65.536 4.096-59.392 43.008l40.96 243.712-178.176 172.032c-28.672 28.672-16.384 63.488 22.528 69.632l245.76 34.816 110.592 221.184c18.432 34.816 55.296 34.816 73.728 0l110.592-221.184 245.76-34.816c38.912-6.144 51.2-40.96 22.528-69.632l-178.176-172.032 12.288-65.536c2.048-10.24-6.144-22.528-16.384-24.576-10.24-2.048-22.528 6.144-24.576 16.384l-14.336 86.016 192.512 188.416-266.24 38.912-120.832 241.664-118.784-241.664-266.24-38.912 192.512-188.416-45.056-264.192 237.568 124.928 237.568-124.928-10.24 67.584z"  horiz-adv-x="1024" />

    
    <glyph glyph-name="zhanghu1" unicode="&#58894;" d="M512 564m-267 0a267 267 0 1 1 534 0 267 267 0 1 1-534 0ZM748.9 314.4c-68-44.9-149.3-71.1-236.9-71.1s-168.9 26.2-236.9 71.1C149.7 235.60000000000002 66.3 96 66.3-63.10000000000002h891.4c0 159.1-83.4 298.7-208.8 377.5z"  horiz-adv-x="1024" />

    
    <glyph glyph-name="dizhi" unicode="&#58942;" d="M512-116.8c-253.6 0-511.2 54.4-511.2 158.4 0 92.8 198.4 131.2 283.2 143.2h3.2c12 0 22.4-8.8 24-20.8 0.8-6.4-0.8-12.8-4.8-17.6-4-4.8-9.6-8.8-16-9.6-176.8-25.6-242.4-72-242.4-96 0-44.8 180.8-110.4 463.2-110.4s463.2 65.6 463.2 110.4c0 24-66.4 70.4-244.8 96-6.4 0.8-12 4-16 9.6-4 4.8-5.6 11.2-4.8 17.6 1.6 12 12 20.8 24 20.8h3.2c85.6-12 285.6-50.4 285.6-143.2 0.8-103.2-256-158.4-509.6-158.4z m-16.8 169.6c-12 11.2-288.8 272.8-288.8 529.6 0 168 136.8 304.8 304.8 304.8S816 750.4 816 582.4c0-249.6-276.8-517.6-288.8-528.8l-16-16-16 15.2zM512 839.2c-141.6 0-256.8-115.2-256.8-256.8 0-200.8 196-416 256.8-477.6 61.6 63.2 257.6 282.4 257.6 477.6C768.8 723.2 653.6 839.2 512 839.2z m0-392.8c-80 0-144.8 64.8-144.8 144.8S432 736 512 736c80 0 144.8-64.8 144.8-144.8 0-80-64.8-144.8-144.8-144.8zM512 688c-53.6 0-96.8-43.2-96.8-96.8S458.4 494.4 512 494.4c53.6 0 96.8 43.2 96.8 96.8S564.8 688 512 688z"  horiz-adv-x="1024" />

    
    <glyph glyph-name="zhanghu" unicode="&#58884;" d="M908-96c-12 0-24 12-24 24 0 102-36 192-108 264-12 12-12 24 0 36 12 12 24 12 36 0 78-78 126-186 126-300-6-12-18-24-30-24zM512 300c-102 0-192-42-264-108-72-72-108-162-108-264 0-12-12-24-24-24s-24 12-24 24c0 114 42 216 126 300 48 48 108 84 174 102-96 48-162 144-162 252 0 156 126 282 282 282s282-126 282-282-126-282-282-282zM512 816c-126 0-234-108-234-234s102-234 228-234h6c126 0 234 108 234 234 0 132-102 234-234 234z"  horiz-adv-x="1024" />

    
    <glyph glyph-name="baojiahou" unicode="&#58934;" d="M854.773 679.313h-680.273c-58.008 0-84.375-21.094-84.375-79.102v-158.203h21.094c26.367 0 47.461-21.094 47.461-52.734 0-26.367-21.094-52.734-47.461-52.734h-21.094v-158.203c0-52.734 26.367-73.828 84.375-73.828h680.273c52.734 0 79.102 15.82 79.102 73.828v163.477h-10.547c-26.367 0-47.461 21.094-47.461 52.734 0 26.367 21.094 52.734 47.461 52.734h10.547v158.203c-5.273 52.734-26.367 73.828-79.102 73.828zM617.469 299.625h-73.828v-47.461c0-10.547-10.547-26.367-26.367-26.367s-26.367 10.547-26.367 26.367v47.461h-73.828c-10.547 0-21.094 10.547-21.094 21.094s10.547 26.367 26.367 26.367h73.828v47.461h-79.102c-10.547 0-21.094 10.547-21.094 26.367 0 10.547 10.547 26.367 26.367 26.367h58.008l-52.734 52.734c-10.547 10.547-10.547 26.367 0 31.641 10.547 10.547 26.367 10.547 31.641 0l52.734-52.734 52.734 52.734c10.547 10.547 26.367 10.547 31.641 0 10.547-10.547 10.547-26.367 0-31.641l-52.734-52.734h63.281c10.547 0 26.367-10.547 26.367-26.367 0-10.547-10.547-26.367-26.367-26.367h-63.281v-47.461h73.828c10.547 0 26.367-10.547 26.367-26.367-5.273-10.547-15.82-21.094-26.367-21.094z"  horiz-adv-x="1024" />

    
    <glyph glyph-name="web-icon-" unicode="&#59114;" d="M587.776 162.784a25.024 25.024 0 0 0-25.056 25.024v275.2a25.024 25.024 0 0 0 50.112 0v-275.2c0-13.856-11.2-25.024-25.056-25.024m-150.304 0a25.024 25.024 0 0 0-25.056 25.024v275.2a25.024 25.024 0 0 0 50.112 0v-275.2a25.024 25.024 0 0 0-25.056-25.024M838.304 588.032h-125.248V638.08a74.912 74.912 0 0 1-74.592 75.072h-251.072A75.2 75.2 0 0 1 312.256 638.08v-50.048H186.944a25.024 25.024 0 1 1 0-50.048h651.328a25.024 25.024 0 1 1 0.032 50.048M362.336 638.08c0 13.792 11.264 25.024 25.056 25.024h251.072c13.728 0 24.48-10.976 24.48-25.024v-50.048h-300.608V638.08m325.76-625.408H337.312a75.168 75.168 0 0 0-75.136 75.04V463.328a25.056 25.056 0 0 0 50.112 0v-375.616c0-13.792 11.264-25.024 25.056-25.024h350.784c13.824 0 25.056 11.2 25.056 25.024V462.304a25.056 25.056 0 0 0 50.112 0v-374.592a75.264 75.264 0 0 0-75.2-75.04m0 0z"  horiz-adv-x="1024" />

    
    <glyph glyph-name="sanjiao_xia" unicode="&#58929;" d="M130.255 425.53866669L512 43.794666689999985l381.745 381.745h-763.49z"  horiz-adv-x="1024" />

    
    <glyph glyph-name="zhaopian2" unicode="&#58935;" d="M241.25656754251855 86.62606612859258c-13.315251313777777 0-22.19208430933333-8.876834209185184-22.19208552296296-22.19208552296296s8.876834209185184-22.19208430933333 22.19208552296296-22.19208430933333h612.5015361611852c39.9457527277037 0 73.2338791917037 33.288126464 73.2338791917037 73.2338791917037V621.4553059934815c0 39.9457527277037-33.288126464 73.2338791917037-73.2338791917037 73.2338791917037H172.46110424177783c-39.9457527277037 0-73.2338791917037-33.288126464-73.2338791917037-73.2338791917037v-505.9795305054814c0-8.876834209185184 6.657625050074073-17.75366720474074 15.53445925925926-22.19208430933333 8.876834209185184-2.2192079454814815 19.97287636385185 2.2192079454814815 24.411293468444445 8.876834209185184l210.82480457955552 350.63493669925924 142.0293412788148-208.60559542044444c4.438417104592592-6.657625050074073 11.096042154666666-8.876834209185184 17.753668418370367-8.876834209185184 6.657625050074073 0 13.315251313777777 2.2192079454814815 17.75366720474074 8.876834209185184l104.30279771022222 135.37171622874072 219.70163878874072-292.9355167668148H241.25656754251855z m410.5535657908148 343.97731164918514c-4.438417104592592 6.657625050074073-11.096042154666666 8.876834209185184-17.75366720474074 8.876834209185184-6.657625050074073 0-13.315251313777777-2.2192079454814815-17.753668418370367-8.876834209185184L514.2192079454815 295.23166154903686l-144.24854922429628 210.82480457955552c-4.438417104592592 6.657625050074073-11.096042154666666 8.876834209185184-19.97287636385185 8.876832995555555-6.657625050074073 0-15.53445925925926-4.438417104592592-17.753668418370367-11.096042154666666l-186.4135111111111-310.6891851851852V621.4553059934815c0 15.53445925925926 13.315251313777777 28.849710573037036 28.849710573037036 28.84970935940741h679.0777903028147c15.53445925925926 0 28.849710573037036-13.315251313777777 28.849710573037036-28.84970935940741v-494.8834883508148L651.8101333333334 430.6033777777777z"  horiz-adv-x="1024" />

    
    <glyph glyph-name="fenxiang" unicode="&#58965;" d="M908.4196736042984 303.20108515985385c-15.149797050342714 0-25.249660369730368-10.099864700228474-25.249660369730368-25.249660369730368v-189.37245553465942c0-32.82455958532214-27.774627235207902-60.599185439689215-60.599185439689215-60.599185439689215H214.05400238998652c-32.82455958532214 0-60.599185439689215 27.774627235207902-60.599185439689215 60.599185439689215v530.2428760493827c0 32.82455958532214 27.774627235207902 60.599185439689215 60.599185439689215 60.599185439689215h194.42238788477366c15.149797050342714 0 25.249660369730368 10.099864700228474 25.24966175057119 25.249660369730368s-10.099864700228474 25.249660369730368-25.24966175057119 25.24966175057119h-194.42238788477366c-60.599185439689215 0-111.09850755999078-50.499322120301564-111.09850617914998-111.09850755999078v-530.2428760493827c0-60.599185439689215 50.499322120301564-111.09850755999078 111.09850617914998-111.09850755999078h611.041790889529c60.599185439689215 0 111.09850755999078 50.499322120301564 111.09850755999078 111.09850755999078v189.37245553465942c-2.524965484636708 15.149797050342714-12.624830184865184 25.249660369730368-27.774627235207902 25.249660369730368zM764.4966078398261 780.4196736042982c-10.099864700228474 10.099864700228474-25.249660369730368 10.099864700228474-35.34952506995885 0s-10.099864700228474-25.249660369730368 0-35.34952506995885l123.72333774485595-123.72333774485595h-133.82320244508443c-247.4466754897119-30.299592719844608-310.57082779487865-189.37245553465942-325.7206234643806-416.61940162391437 0-15.149797050342714 10.099864700228474-25.249660369730368 22.72469488509366-27.774627235207902h2.524965484636708c12.624830184865184 0 25.249660369730368 10.099864700228474 25.249660369730368 22.72469488509366 15.149797050342714 214.62211590438977 68.17408465528098 343.3953859993599 280.2712350750341 371.1700132345679h138.87313479519864L739.2469474700957 447.12415230516683c-10.099864700228474-10.099864700228474-10.099864700228474-25.249660369730368 0-35.34952506995885 5.049932350114237-5.049932350114237 12.624830184865184-7.574897834750945 17.674762534979426-7.574899215591769s12.624830184865184 2.524965484636708 17.674762534979426 7.574899215591769l143.92306576447208 143.92306576447208c10.099864700228474 10.099864700228474 15.149797050342714 22.72469488509366 15.149797050342714 35.34952506995885s-5.049932350114237 25.249660369730368-15.149797050342714 35.34952506995885L764.4966078398261 780.4196736042982z"  horiz-adv-x="1024" />

    
    <glyph glyph-name="huidaodingbu" unicode="&#58957;" d="M866.7 800H157.3c-17.8 0-32.2-14.4-32.2-32.2 0-17.8 14.4-32.2 32.2-32.2h709.5c17.8 0 32.2 14.4 32.2 32.2 0 17.8-14.4 32.2-32.3 32.2zM512 671c-16.5 0-33-6.3-45.6-18.9L169.9 355.7c-5.8-5.8-9.4-13.9-9.4-22.8s3.6-17 9.4-22.8c5.8-5.8 13.9-9.4 22.8-9.4s17 3.6 22.8 9.4l264.2 264.2v-574c0-17.8 14.4-32.2 32.2-32.2 17.8 0 32.2 14.4 32.2 32.2v574l264.2-264.2c5.8-5.8 13.9-9.4 22.8-9.4s17 3.6 22.8 9.4c5.8 5.8 9.4 13.9 9.4 22.8s-3.6 17-9.4 22.8L557.6 652.1C545 664.7 528.5 671 512 671z"  horiz-adv-x="1024" />

    
    <glyph glyph-name="fenlei1" unicode="&#58908;" d="M412.864613 825.267622l0.134676-0.134677a240.316784 240.316784 0 0 0 70.839851-170.662087v-214.916793a26.665951 26.665951 0 0 0-26.639016-26.585145H241.933172a241.528873 241.528873 0 0 0-171.093052 70.705173A240.720814 240.720814 0 0 0 0.000269 654.470858a240.586137 240.586137 0 0 0 70.839851 170.796764l1.616118 1.481441A241.367261 241.367261 0 0 0 241.933172 895.999731a241.178714 241.178714 0 0 0 170.931441-70.732109z m-170.931441-952.971064a241.501938 241.501938 0 0 0-171.093052 70.705173A240.693879 240.693879 0 0 0 0.000269 113.798496a240.586137 240.586137 0 0 0 70.839851 170.796764l0.080806-0.053871 0.05387 0.053871a241.151779 241.151779 0 0 0 170.958376 70.732109h215.266952a26.612081 26.612081 0 0 0 26.665951-26.585146v-214.943727a240.532267 240.532267 0 0 0-69.385344-169.153711l-1.481442-1.616118a241.367261 241.367261 0 0 0-171.066117-70.732109z m370.49511 70.705173a240.666943 240.666943 0 0 0-70.83985 170.796765v214.943727a26.665951 26.665951 0 0 0 26.639016 26.585146h215.266951a241.151779 241.151779 0 0 0 170.931441-70.732109l0.134676-0.134677a240.370655 240.370655 0 0 0 70.839851-170.662087 240.316784 240.316784 0 0 0-70.839851-170.635153l-0.05387-0.080806 0.05387-0.080806a241.340326 241.340326 0 0 0-171.066117-70.705173 241.475003 241.475003 0 0 0-171.066117 70.705173z m97.694348 523.218285h73.371769a188.170035 188.170035 0 0 1 133.383627 55.109633l1.346765 1.265959a187.658265 187.658265 0 0 1 53.843673 131.87525 187.954553 187.954553 0 0 1-188.547129 188.250841 188.385518 188.385518 0 0 1-133.383627-55.028827v-0.080806a187.523588 187.523588 0 0 1-55.217374-133.141208v-214.916793a26.719822 26.719822 0 0 0-53.331902 0v214.943728a240.532267 240.532267 0 0 0 70.83985 170.769829l0.053871-0.053871 0.080806 0.053871A241.178714 241.178714 0 0 0 783.494399 895.999731a241.151779 241.151779 0 0 0 170.958376-70.732109l0.134677-0.134677a240.370655 240.370655 0 0 0 70.83985-170.662087 240.532267 240.532267 0 0 0-69.358409-169.153711l-1.481441-1.616118a241.340326 241.340326 0 0 0-171.093053-70.732109h-73.371769a26.719822 26.719822 0 0 0-26.719821 26.585145c0 14.706676 11.959275 26.665951 26.719821 26.665951z"  horiz-adv-x="1050" />

    
    <glyph glyph-name="xin_02" unicode="&#59216;" d="M508.782592-52.541439999999966c-4.998144 0-9.607168 1.097728-13.700096 3.262464-59.829248 29.748224-168.301568 110.8992-265.238528 218.887168-50.847744 56.643584-91.277312 112.651264-120.164352 166.464512-33.726464 62.829568-50.828288 121.363456-50.828288 173.973504 0 108.376064 50.56 170.901504 92.975104 204.271616 47.115264 37.067776 111.557632 59.198464 172.383232 59.198464 37.786624 0 76.863488-11.599872 116.144128-34.479104 28.826624-16.789504 52.339712-36.52096 68.426752-51.784704 16.08704 15.264768 39.600128 34.996224 68.426752 51.784704 39.28064 22.878208 78.354432 34.479104 116.13696 34.479104 60.8256 0 125.27104-22.129664 172.387328-59.198464 42.416128-33.369088 92.978176-95.895552 92.978176-204.271616 0-52.605952-17.098752-111.138816-50.824192-173.973504-28.878848-53.804032-69.296128-109.812736-120.131584-166.464512-96.908288-107.997184-205.343744-189.197312-265.08288-218.939392a31.321088 31.321088 0 0 0-13.888512-3.21024z"  horiz-adv-x="1024" />

    
    <glyph glyph-name="Asset" unicode="&#58885;" d="M1136.11594 491.819781L591.850532 890.258804a30.313516 30.313516 0 0 1-35.36577 0L12.219354 491.819781a29.854221 29.854221 0 1 1 35.365769-48.226049L574.167647 829.172475 1100.750171 443.593732a30.083869 30.083869 0 0 1 41.795909 6.43014 30.083869 30.083869 0 0 1-6.43014 41.795909zM991.897089 436.704297a29.854221 29.854221 0 0 1-29.854221-29.854221V-68.520977H723.438751V191.440391a149.271104 149.271104 0 0 1-298.542208 0V-68.520977H186.292426V407.079724a29.854221 29.854221 0 0 1-59.708442 0v-505.225274a29.854221 29.854221 0 0 1 29.854221-29.85422h298.542207a29.854221 29.854221 0 0 1 29.854221 27.557742V191.440391a89.562662 89.562662 0 0 0 179.125324 0v-291.423123a29.854221 29.854221 0 0 1 29.854221-27.557743h298.542207a29.854221 29.854221 0 0 1 29.85422 29.854221v505.225274A29.854221 29.854221 0 0 1 991.897089 436.704297z"  horiz-adv-x="1148" />

    
    <glyph glyph-name="zixun" unicode="&#58944;" d="M868.16896 748.8192H154.72384c-42.64576 0-77.36064-34.71488-77.36064-77.36064v-523.17952c0-42.63936 34.71488-77.35936 77.36064-77.35936h258.8096l97.90976-97.85088 97.88544 97.85088h258.84032c42.64448 0 77.32992 34.72 77.32992 77.35936V671.45856c0 42.64576-34.68544 77.36064-77.32992 77.36064z m17.78944-101.14048v-475.61984c0-22.91968-18.6496-41.56928-41.57056-41.56928H580.57344l-69.13024-69.18656-69.15456 69.18656H178.50496c-22.9504 0-41.6 18.64832-41.6 41.56928V647.67872c0 22.9504 18.6496 41.6 41.6 41.6h665.88416c22.91968 0 41.56928-18.6496 41.56928-41.6z m0 0M297.24928 471.7888h448.94976c15.21024 0 27.61984 12.7808 27.61984 28.48 0 15.72992-12.4096 28.54528-27.61984 28.54528H297.24928c-15.21024 0-27.5904-12.81536-27.5904-28.54528-0.00128-15.6992 12.37888-28.48 27.5904-28.48z m0 0M746.19904 376.73472H297.24928c-15.21024 0-27.5904-12.81152-27.5904-28.51072s12.38016-28.50816 27.5904-28.50816h448.94976c15.21024 0 27.61984 12.81024 27.61984 28.50816 0 15.6992-12.4096 28.51072-27.61984 28.51072z m0 0"  horiz-adv-x="1024" />

    
    <glyph glyph-name="pinpai" unicode="&#58899;" d="M992.987429 518.558476L794.185143 788.041143c-4.217905 6.265905-12.678095 10.435048-19.017143 10.435047H244.297143s-14.799238-2.096762-23.259429-16.700952C195.705905 739.961905 34.962286 503.929905 34.962286 503.929905L24.380952 487.204571l12.678096-14.628571 431.445333-497.176381c4.217905-4.169143 6.339048-6.265905 10.581333-8.362667 6.339048-4.144762 31.695238-10.435048 46.518857 0 4.217905 2.096762 6.339048 6.265905 10.581334 8.362667l406.040381 411.550476a21.577143 21.577143 0 0 1 0 33.401905 19.992381 19.992381 0 0 1-31.695238 0l-351.085715-357.205333 152.259048 413.622857h249.563429c2.121143 0 19.017143 0 23.259428 4.169143l2.121143 2.096762c12.678095 6.265905 14.799238 20.894476 6.339048 35.523047z m-213.577143 231.862857l-95.183238-221.427809H341.577143l-84.601905 221.427809h522.386286zM223.158857 702.415238l71.899429-175.494095H104.740571L223.183238 702.415238z m-128.999619-221.45219h213.577143l137.48419-407.356953-351.085714 407.356953z m408.137143-434.517334L356.449524 480.938667h304.518095l-158.598095-434.517334z m230.546286 480.475429l74.020571 162.937905 118.418286-165.034667H732.891429v2.096762z"  horiz-adv-x="1024" />

    
    <glyph glyph-name="return" unicode="&#58880;" d="M795.477333 413.738667L370.389333 838.869333a42.922667 42.922667 0 1 1-60.714666-60.714666l394.752-394.752-394.752-394.752a42.922667 42.922667 0 1 1 60.714666-60.714667l425.130667 425.130667a42.922667 42.922667 0 0 1-0.042667 60.672z"  horiz-adv-x="1024" />

    
    <glyph glyph-name="login_shouji" unicode="&#59009;" d="M819.2 691.2V793.6a51.2 51.2 0 0 1-51.2 51.2H256a51.2 51.2 0 0 1-51.2-51.2v-102.4h614.4z m0-51.2H204.8v-665.6a51.2 51.2 0 0 1 51.2-51.2h512a51.2 51.2 0 0 1 51.2 51.2V640zM256 896h512a102.4 102.4 0 0 0 102.4-102.4v-819.2a102.4 102.4 0 0 0-102.4-102.4H256a102.4 102.4 0 0 0-102.4 102.4V793.6a102.4 102.4 0 0 0 102.4 102.4z m179.2-844.8h153.6a25.6 25.6 0 0 0 0-51.2h-153.6a25.6 25.6 0 0 0 0 51.2z"  horiz-adv-x="1024" />

    
    <glyph glyph-name="xin_01" unicode="&#58959;" d="M1023.537254 794.174873C963.487077 859.837866 883.11006 896 797.210834 896c-46.983269 0-94.291754-11.554085-136.814217-33.409929-39.307512-20.203873-74.99072-49.496011-103.422086-84.860475-28.423276 35.364464-64.100012 64.656602-103.401052 84.860475C411.054252 884.445915 363.742531 896 316.747936 896 230.835766 896 150.455512 859.837866 90.41019 794.174873 32.109063 730.417875 0 646.117225 0 556.802417c0-48.48153 9.597932-94.806275 29.340678-141.622891 16.451749-39.006565 37.699227-73.466571 59.854399-108.258266 48.818072-76.569881 133.06371-169.182158 250.395678-275.256134 87.934661-79.48874 162.375264-137.349772 170.573632-143.684213 13.332259-10.304995 29.950661-15.980913 46.7972-15.980913s33.464941 5.672682 46.797199 15.972823c8.216166 6.350621 82.810478 64.344329 170.584958 143.692303 117.353002 106.083684 201.597022 198.697579 250.387589 275.262606 37.655541 59.085853 89.229055 140.00328 89.229055 249.874685 0 89.318045-32.112299 173.618694-90.423134 237.372456zM316.747936 816.718363c84.20357 0 162.834774-49.580147 205.208381-129.390866a39.559919 39.559919 0 0 1 35.011742-21.051702 39.559919 39.559919 0 0 1 35.010123 21.041994C634.379296 767.134981 713.021826 816.718363 797.210834 816.718363c63.373533 0 122.973908-27.007532 167.823044-76.048887 44.907384-49.101221 69.640019-114.400166 69.640019-183.867059 0-86.781032-40.804155-150.788819-76.80449-207.259996-105.900851-166.1824-374.329056-376.877394-400.904584-397.527834C530.701567-27.57443599999999 261.999921 183.33736899999997 156.058621 349.52785900000003c-20.262121 31.817824-39.613312 63.137307-53.665578 96.466336C86.840898 482.866628 79.281637 519.112898 79.281637 556.802417c0 69.463658 24.729399 134.762602 69.631928 183.868677C193.761084 789.710831 253.366313 816.718363 316.747936 816.718363z"  horiz-adv-x="1113" />

    
    <glyph glyph-name="shoucang0" unicode="&#58889;" d="M752-43.200000000000045c-9.6 0-20.8 3.2-30.4 8l-208 104L304-35.200000000000045c-20.8-11.2-48-9.6-67.2 4.8-19.2 14.4-30.4 40-25.6 64l43.2 224-164.8 153.6c-17.6 17.6-24 44.8-17.6 67.2 8 24 27.2 41.6 52.8 44.8l228.8 41.6 102.4 208c11.2 22.4 33.6 36.8 57.6 36.8s48-14.4 57.6-36.8l102.4-208 228.8-40c24-3.2 44.8-20.8 51.2-44.8 8-24 1.6-49.6-16-67.2l-164.8-155.2 41.6-224c4.8-25.6-6.4-49.6-25.6-64-9.6-8-22.4-12.8-36.8-12.8z"  horiz-adv-x="1024" />

    
    <glyph glyph-name="anli" unicode="&#59134;" d="M963.5 114.20000000000005c0-48.5-18.9-94.1-53.2-128.5-34.3-34.3-79.9-53.2-128.4-53.2s-94.1 18.9-128.5 53.2c-34.3 34.3-53.2 79.9-53.2 128.4V293.5c0 1.3 1 2.3 2.3 2.3h179.3c48.5 0 94.1-18.9 128.4-53.2 34.4-34.3 53.3-79.9 53.3-128.4zM781.8 356.4H602.5c-34.6 0-62.8-28.2-62.8-62.8v-179.3c0-133.5 108.6-242.2 242.2-242.2S1024-19.299999999999955 1024 114.20000000000005 915.4 356.4 781.8 356.4zM600.2 474.5V653.8c0 48.5 18.9 94.1 53.2 128.5 34.3 34.3 79.9 53.2 128.5 53.2 48.5 0 94.1-18.9 128.4-53.2 34.3-34.3 53.2-79.9 53.2-128.4s-18.9-94.1-53.2-128.5c-34.3-34.3-79.9-53.2-128.4-53.2H602.5c-1.3 0-2.3 1-2.3 2.3z m2.3-62.8h179.3c133.5 0 242.2 108.6 242.2 242.2C1024 787.4 915.4 896 781.8 896S539.7 787.4 539.7 653.8v-179.3c0-34.6 28.1-62.8 62.8-62.8zM423.8 293.5v-179.3c0-48.5-18.9-94.1-53.2-128.5-34.3-34.3-79.9-53.2-128.5-53.2-48.5 0-94.1 18.9-128.5 53.2-34.3 34.3-53.2 79.9-53.2 128.4s18.9 94.1 53.2 128.5c34.3 34.3 79.9 53.2 128.4 53.2h179.3c1.5 0.1 2.5-1 2.5-2.3z m-2.3 62.9H242.2C108.6 356.4 0 247.70000000000005 0 114.20000000000005S108.6-128 242.2-128s242.2 108.6 242.2 242.2V293.5c-0.1 34.7-28.2 62.9-62.9 62.9z m-361 297.4c0 48.5 18.9 94.1 53.2 128.5 34.3 34.3 79.9 53.2 128.4 53.2s94.2-18.9 128.5-53.2c34.3-34.3 53.2-79.9 53.2-128.5v-179.3c0-1.3-1-2.3-2.3-2.3H242.2c-48.5 0-94.1 18.9-128.5 53.2-34.3 34.3-53.2 79.9-53.2 128.4z m181.7-242.1h179.3c34.6 0 62.8 28.2 62.8 62.8V653.8c0 64.7-25.2 125.5-70.9 171.2C367.7 870.8 306.9 896 242.2 896 108.6 896 0 787.4 0 653.8s108.6-242.1 242.2-242.1z"  horiz-adv-x="1024" />

    
    <glyph glyph-name="zhaopian" unicode="&#58994;" d="M1187.84 896H122.88C55.05024 896 0 846.848 0 782.21312v-796.42624C0-78.848 55.05024-128 122.88-128h1064.96c67.82976 0 122.88 49.152 122.88 113.78688V782.21312C1310.72 846.848 1255.66976 896 1187.84 896zM122.88 814.08h1064.96c22.60992 0 40.96-17.32608 40.96-40.96v-450.56c-65.98656 48.16896-180.4288 117.1456-327.68 122.88-116.61312-5.7344-241.41824-98.38592-368.64-204.8-85.89312-51.85536-181.53472-122.88-245.76-122.88-96.95232 0-177.47968 65.37216-204.8 81.92V773.12c0 23.63392 18.35008 40.96 40.96 40.96z m245.76-450.56a163.84 163.84 0 1 1 0 327.68 163.84 163.84 0 0 1 0-327.68z m0 245.76a81.92 81.92 0 1 0 0-163.84 81.92 81.92 0 0 0 0 163.84z"  horiz-adv-x="1310" />

    
    <glyph glyph-name="fuzhi" unicode="&#58926;" d="M701 615c23.2 0 42-18.8 42-42v-504c0-23.2-18.8-42-42-42H197c-23.2 0-42 18.8-42 42V573c0 23.2 18.8 42 42 42h504m0 42H197c-46.3 0-84-37.7-84-84v-504c0-46.3 37.7-84 84-84h504c46.3 0 84 37.7 84 84V573c0 46.3-37.7 84-84 84zM848 153h-21c-11.6 0-21 9.4-21 21s9.4 21 21 21h21c11.6 0 21 9.4 21 21V720c0 11.6-9.4 21-21 21H344c-11.6 0-21-9.4-21-21v-20.6c0-11.6-9.4-21-21-21s-21 9.4-21 21V720c0 34.7 28.3 63 63 63h504c34.7 0 63-28.3 63-63v-504c0-34.7-28.3-63-63-63zM596 300H302c-11.6 0-21 9.4-21 21s9.4 21 21 21h294c11.6 0 21-9.4 21-21s-9.4-21-21-21zM449 153c-11.6 0-21 9.4-21 21V468c0 11.6 9.4 21 21 21s21-9.4 21-21v-294c0-11.6-9.4-21-21-21z"  horiz-adv-x="1024" />

    
    <glyph glyph-name="xiangmuxuqiu" unicode="&#58891;" d="M793.7 290.5c-10.7 0-19.3 8.6-19.3 19.3V668c-0.1 0.3-1.6 1.9-4.6 1.9H465.3c-3 0-4.5-1.5-4.6-2v-94.7c0-10.7-8.6-19.3-19.3-19.3s-19.3 8.6-19.3 19.3V668c0 22.3 19.4 40.4 43.2 40.4h304.5c23.8 0 43.2-18.1 43.2-40.4v-358.2c0-10.7-8.6-19.3-19.3-19.3zM619.5 52.60000000000002H263.2c-26.1 0-47.2 19.7-47.2 44V541.8c0 24.3 21.2 44 47.2 44h356.3c26.1 0 47.2-19.8 47.2-44v-445.2c0.1-24.3-21.1-44-47.2-44zM263.2 547.2c-4.9 0-8.7-2.9-8.7-5.4v-445.2c0-2.5 3.8-5.4 8.7-5.4h356.3c4.9 0 8.7 2.9 8.7 5.4V541.8c0 2.5-3.8 5.4-8.7 5.4H263.2zM769.8 247.10000000000002h-48.2c-10.7 0-19.3 8.6-19.3 19.3s8.6 19.3 19.3 19.3h48.2c3 0 4.5 1.5 4.6 2V310c0 10.7 8.6 19.3 19.3 19.3S813 320.70000000000005 813 310v-22.5c0-22.3-19.4-40.4-43.2-40.4zM562.9 429H312.1c-10.7 0-19.3 8.8-19.3 19.5s8.6 19.5 19.3 19.5h250.8c10.7 0 19.3-8.8 19.3-19.5s-8.7-19.5-19.3-19.5zM562.9 294H312.1c-10.7 0-19.3 8.8-19.3 19.5s8.6 19.5 19.3 19.5h250.8c10.7 0 19.3-8.8 19.3-19.5s-8.7-19.5-19.3-19.5zM562.9 178H312.1c-10.7 0-19.3 8.8-19.3 19.5s8.6 19.5 19.3 19.5h250.8c10.7 0 19.3-8.8 19.3-19.5s-8.7-19.5-19.3-19.5z"  horiz-adv-x="1024" />

    
    <glyph glyph-name="daohang" unicode="&#58888;" d="M325.4 632.3h565.1c20.3 0 36.7 16.4 36.7 36.7s-16.4 36.7-36.7 36.7H325.4c-20.3 0-36.7-16.4-36.7-36.7s16.5-36.7 36.7-36.7zM157.9 669m-58.7 0a58.7 58.7 0 1 1 117.4 0 58.7 58.7 0 1 1-117.4 0ZM890.5 419.5H325.4c-20.3 0-36.7-16.4-36.7-36.7 0-20.3 16.4-36.7 36.7-36.7h565.1c20.3 0 36.7 16.4 36.7 36.7 0 20.2-16.4 36.7-36.7 36.7zM157.9 382.8m-58.7 0a58.7 58.7 0 1 1 117.4 0 58.7 58.7 0 1 1-117.4 0ZM890.5 133.3H325.4c-20.3 0-36.7-16.4-36.7-36.7 0-20.3 16.4-36.7 36.7-36.7h565.1c20.3 0 36.7 16.4 36.7 36.7 0 20.2-16.4 36.7-36.7 36.7zM157.9 96.6m-58.7 0a58.7 58.7 0 1 1 117.4 0 58.7 58.7 0 1 1-117.4 0Z"  horiz-adv-x="1024" />

    
    <glyph glyph-name="wushoucang" unicode="&#58900;" d="M952 29.973333329999946h-880c-24.32 0-44.16 19.84-44.16 44.16s19.84 44.16 44.16 44.16h880c24.32 0 44.16-19.84 44.16-44.16s-19.84-44.16-44.16-44.16z m-880 76.58666667c-17.81333333 0-32.42666667-14.50666667-32.42666667-32.42666667 0-17.81333333 14.50666667-32.42666667 32.42666667-32.42666666h880c17.81333333 0 32.42666667 14.50666667 32.42666667 32.42666666s-14.50666667 32.42666667-32.42666667 32.42666667h-880zM661.12 328.53333333c-4.90666667 0-12.8 2.13333333-19.94666667 13.33333334L594.66666667 413.86666667c-8.85333333 13.76-30.18666667 26.02666667-46.50666667 26.77333333l-85.65333333 4.16c-15.04 0.74666667-20.48 7.89333333-22.4 12.16-1.92 4.26666667-3.62666667 13.12 5.86666666 24.74666667l54.08 66.56c10.34666667 12.69333333 15.36 36.8 11.09333334 52.58666666L488.53333333 683.52c-3.94666667 14.50666667 1.17333333 21.86666667 4.69333334 24.96 3.41333333 3.09333333 11.30666667 7.46666667 25.38666666 2.13333333l80-30.82666666c15.25333333-5.86666667 39.68-3.30666667 53.44 5.65333333l71.68 47.04c12.58666667 8.21333333 21.22666667 5.65333333 25.28 3.30666667 4.05333333-2.34666667 10.66666667-8.42666667 9.81333334-23.46666667l-4.69333334-85.54666667c-0.85333333-16.32 9.17333333-38.82666667 21.86666667-49.06666666l66.88-53.65333334c11.73333333-9.38666667 11.84-18.45333333 10.88-22.93333333-0.96-4.58666667-4.69333333-12.69333333-19.30666667-16.64l-82.88-22.08c-15.78666667-4.16-34.02666667-20.69333333-39.89333333-35.94666667l-30.4-80.21333333c-5.33333333-14.08-13.86666667-16.96-18.45333333-17.49333333-0.42666667-0.10666667-1.06666667-0.21333333-1.70666667-0.21333334zM506.24 701.44c-2.24 0-3.94666667-0.53333333-5.12-1.6-2.45333333-2.13333333-2.88-7.14666667-1.17333333-13.22666667l22.50666666-82.66666666c5.33333333-19.62666667-0.53333333-47.25333333-13.33333333-63.04l-54.08-66.56c-3.94666667-4.90666667-5.54666667-9.6-4.26666667-12.58666667 1.28-2.98666667 5.86666667-4.90666667 12.16-5.22666667l85.65333334-4.16c20.26666667-0.96 44.8-15.14666667 55.89333333-32.10666666l46.50666667-72c3.41333333-5.33333333 7.36-8.21333333 10.66666666-7.89333334 3.2 0.32 6.50666667 4.05333333 8.74666667 10.02666667l30.4 80.21333333c7.14666667 18.98666667 28.16 37.97333333 47.78666667 43.2l82.88 22.08c6.08 1.6 10.13333333 4.48 10.77333333 7.68 0.64 3.2-1.92 7.46666667-6.82666667 11.41333334l-66.88 53.65333333c-15.89333333 12.69333333-27.41333333 38.50666667-26.24 58.88l4.69333334 85.54666667c0.32 6.29333333-1.17333333 11.09333333-3.94666667 12.69333333s-7.68 0.53333333-12.90666667-2.98666667l-71.68-47.04c-16.96-11.09333333-45.12-14.08-64.10666666-6.82666666l-80 30.82666666c-2.98666667 1.06666667-5.76 1.70666667-8.10666667 1.70666667zM729.2014816 688.23907947a7.25333333 7.25333333 0 1 1 7.26648533 12.5555392 7.25333333 7.25333333 0 1 1-7.26648533-12.5555392ZM727.64431787 667.703008a6.29333333 6.29333333 0 1 1 6.30474453 10.89377707 6.29333333 6.29333333 0 1 1-6.30474453-10.89377707ZM727.59346133 666.73582507a6.29333333 6.29333333 0 1 1 6.30474454 10.893776 6.29333333 6.29333333 0 1 1-6.30474454-10.893776ZM727.5022592 665.91478293a6.29333333 6.29333333 0 1 1 6.30474453 10.89377707 6.29333333 6.29333333 0 1 1-6.30474453-10.89377707ZM727.45140267 664.9476a6.29333333 6.29333333 0 1 1 6.30474453 10.893776 6.29333333 6.29333333 0 1 1-6.30474453-10.893776ZM727.30769387 664.03477013a6.29333333 6.29333333 0 1 1 6.30474453 10.893776 6.29333333 6.29333333 0 1 1-6.30474453-10.893776ZM727.30881173 663.1602976a6.29333333 6.29333333 0 1 1 6.30474454 10.89377707 6.29333333 6.29333333 0 1 1-6.30474454-10.89377707ZM727.1656352 662.24654507a6.29333333 6.29333333 0 1 1 6.30474453 10.893776 6.29333333 6.29333333 0 1 1-6.30474453-10.893776ZM727.1142464 661.2802848a6.29333333 6.29333333 0 1 1 6.30474453 10.89377707 6.29333333 6.29333333 0 1 1-6.30474453-10.89377707ZM727.1168192 660.40542187a6.29333333 6.29333333 0 1 1 6.30474453 10.89377706 6.29333333 6.29333333 0 1 1-6.30474453-10.89377706ZM726.97218773 659.4920597299999a6.29333333 6.29333333 0 1 1 6.30474454 10.89377707 6.29333333 6.29333333 0 1 1-6.30474454-10.89377707ZM726.92079893 658.52579947a6.29333333 6.29333333 0 1 1 6.30474454 10.89377706 6.29333333 6.29333333 0 1 1-6.30474454-10.89377706ZM726.83105173 657.70436693a6.29333333 6.29333333 0 1 1 6.30474454 10.89377707 6.29333333 6.29333333 0 1 1-6.30474454-10.89377707ZM726.77966293 656.73810667a6.29333333 6.29333333 0 1 1 6.30474454 10.89377706 6.29333333 6.29333333 0 1 1-6.30474454-10.89377706ZM726.63556267 655.82382187a6.29333333 6.29333333 0 1 1 6.3047456 10.89377706 6.29333333 6.29333333 0 1 1-6.3047456-10.89377706ZM726.63760427 654.9498816a6.29333333 6.29333333 0 1 1 6.30474453 10.89377707 6.29333333 6.29333333 0 1 1-6.30474453-10.89377707ZM726.58621547 653.9836224000001a6.29333333 6.29333333 0 1 1 6.30474453 10.89377707 6.29333333 6.29333333 0 1 1-6.30474453-10.89377707ZM726.44303893 653.0698688a6.29333333 6.29333333 0 1 1 6.30474454 10.89377707 6.29333333 6.29333333 0 1 1-6.30474454-10.89377707ZM726.39165013 652.1036096a6.29333333 6.29333333 0 1 1 6.30474454 10.893776 6.29333333 6.29333333 0 1 1-6.30474454-10.893776ZM726.30137067 651.28309973a6.29333333 6.29333333 0 1 1 6.3047456 10.89377707 6.29333333 6.29333333 0 1 1-6.3047456-10.89377707ZM726.24959147 650.31538453a6.29333333 6.29333333 0 1 1 6.30474453 10.893776 6.29333333 6.29333333 0 1 1-6.30474453-10.893776ZM726.19820267 649.34912427a6.29333333 6.29333333 0 1 1 6.30474453 10.89377706 6.29333333 6.29333333 0 1 1-6.30474453-10.89377706ZM726.10845547 648.52769173a6.29333333 6.29333333 0 1 1 6.3047456 10.893776 6.29333333 6.29333333 0 1 1-6.3047456-10.893776ZM726.05561173 647.5618229300001a6.29333333 6.29333333 0 1 1 6.30474454 10.893776 6.29333333 6.29333333 0 1 1-6.30474454-10.893776ZM725.9124352 646.64806933a6.29333333 6.29333333 0 1 1 6.30474453 10.89377707 6.29333333 6.29333333 0 1 1-6.30474453-10.89377707ZM725.915008 645.7732063999999a6.29333333 6.29333333 0 1 1 6.3047456 10.89377707 6.29333333 6.29333333 0 1 1-6.3047456-10.89377707ZM725.7712992 644.8603765299999a6.29333333 6.29333333 0 1 1 6.30474453 10.89377707 6.29333333 6.29333333 0 1 1-6.30474453-10.89377707ZM725.7199104 643.89411733a6.29333333 6.29333333 0 1 1 6.30474453 10.893776 6.29333333 6.29333333 0 1 1-6.30474453-10.893776ZM725.72156053 643.01872107a6.29333333 6.29333333 0 1 1 6.3047456 10.89377706 6.29333333 6.29333333 0 1 1-6.3047456-10.89377706ZM725.578384 642.10496853a6.29333333 6.29333333 0 1 1 6.30474453 10.89377707 6.29333333 6.29333333 0 1 1-6.30474453-10.89377707ZM725.52646293 641.139632a6.29333333 6.29333333 0 1 1 6.30474454 10.89377707 6.29333333 6.29333333 0 1 1-6.30474454-10.89377707ZM725.43579307 640.31766613a6.29333333 6.29333333 0 1 1 6.30474453 10.89377707 6.29333333 6.29333333 0 1 1-6.30474453-10.89377707ZM725.38440427 639.3514069299999a6.29333333 6.29333333 0 1 1 6.30474453 10.89377707 6.29333333 6.29333333 0 1 1-6.30474453-10.89377707ZM725.33354773 638.384224a6.29333333 6.29333333 0 1 1 6.30474454 10.893776 6.29333333 6.29333333 0 1 1-6.30474454-10.893776ZM725.18983893 637.47139413a6.29333333 6.29333333 0 1 1 6.30474454 10.893776 6.29333333 6.29333333 0 1 1-6.30474454-10.893776ZM725.1924128 636.5965312000001a6.29333333 6.29333333 0 1 1 6.30474453 10.893776 6.29333333 6.29333333 0 1 1-6.30474453-10.893776ZM725.048704 635.6837013300001a6.29333333 6.29333333 0 1 1 6.30474453 10.89377707 6.29333333 6.29333333 0 1 1-6.30474453-10.89377707ZM724.99639147 634.7169088a6.29333333 6.29333333 0 1 1 6.30474453 10.89377707 6.29333333 6.29333333 0 1 1-6.30474453-10.89377707ZM724.90664533 633.89547627a6.29333333 6.29333333 0 1 1 6.30474454 10.893776 6.29333333 6.29333333 0 1 1-6.30474454-10.893776ZM724.85525653 632.929216a6.29333333 6.29333333 0 1 1 6.30474454 10.89377707 6.29333333 6.29333333 0 1 1-6.30474454-10.89377707ZM724.802944 631.96242347a6.29333333 6.29333333 0 1 1 6.30474453 10.89377706 6.29333333 6.29333333 0 1 1-6.30474453-10.89377706ZM724.71319787 631.14099093a6.29333333 6.29333333 0 1 1 6.30474453 10.89377707 6.29333333 6.29333333 0 1 1-6.30474453-10.89377707ZM724.66180907 630.1747306699999a6.29333333 6.29333333 0 1 1 6.30474453 10.89377706 6.29333333 6.29333333 0 1 1-6.30474453-10.89377706ZM724.51863147 629.26097813a6.29333333 6.29333333 0 1 1 6.3047456 10.89377707 6.29333333 6.29333333 0 1 1-6.3047456-10.89377707ZM724.52067307 628.38703893a6.29333333 6.29333333 0 1 1 6.30474453 10.893776 6.29333333 6.29333333 0 1 1-6.30474453-10.893776ZM724.46836053 627.4202464a6.29333333 6.29333333 0 1 1 6.3047456 10.89377707 6.29333333 6.29333333 0 1 1-6.3047456-10.89377707ZM724.325184 626.5064927999999a6.29333333 6.29333333 0 1 1 6.3047456 10.89377707 6.29333333 6.29333333 0 1 1-6.3047456-10.89377707ZM724.3272256 625.6325535999999a6.29333333 6.29333333 0 1 1 6.30474453 10.89377707 6.29333333 6.29333333 0 1 1-6.30474453-10.89377707ZM724.18312533 624.71826773a6.29333333 6.29333333 0 1 1 6.3047456 10.89377707 6.29333333 6.29333333 0 1 1-6.3047456-10.89377707ZM724.13173653 623.75200853a6.29333333 6.29333333 0 1 1 6.3047456 10.893776 6.29333333 6.29333333 0 1 1-6.3047456-10.893776ZM723.98802773 622.83917867a6.29333333 6.29333333 0 1 1 6.30474454 10.893776 6.29333333 6.29333333 0 1 1-6.30474454-10.893776ZM723.9906016 621.96431573a6.29333333 6.29333333 0 1 1 6.30474453 10.893776 6.29333333 6.29333333 0 1 1-6.30474453-10.893776ZM723.9392128 620.99805547a6.29333333 6.29333333 0 1 1 6.30474453 10.89377706 6.29333333 6.29333333 0 1 1-6.30474453-10.89377706ZM751.03930773 555.7100032000001a6.61333333 6.61333333 0 1 1 11.9701056 5.62683627 6.61333333 6.61333333 0 1 1-11.9701056-5.62683627ZM751.55703253 555.25936533a6.61333333 6.61333333 0 1 1 11.9701056 5.62683627 6.61333333 6.61333333 0 1 1-11.9701056-5.62683627ZM752.17073493 554.8544575999999a6.61333333 6.61333333 0 1 1 11.9701056 5.62683627 6.61333333 6.61333333 0 1 1-11.9701056-5.62683627ZM752.73373547 554.3077407999999a6.61333333 6.61333333 0 1 1 11.9701056 5.62683627 6.61333333 6.61333333 0 1 1-11.9701056-5.62683627ZM753.25100693 553.8570016a6.61333333 6.61333333 0 1 1 11.97010454 5.62683627 6.61333333 6.61333333 0 1 1-11.97010454-5.62683627ZM753.91099413 553.3557632a6.61333333 6.61333333 0 1 1 11.9701056 5.62683627 6.61333333 6.61333333 0 1 1-11.9701056-5.62683627ZM754.42816427 552.9054784a6.61333333 6.61333333 0 1 1 11.97010453 5.6268352 6.61333333 6.61333333 0 1 1-11.97010453-5.6268352ZM755.08724373 552.4040373299999a6.61333333 6.61333333 0 1 1 11.9701056 5.62683627 6.61333333 6.61333333 0 1 1-11.9701056-5.62683627ZM755.60496853 551.95339947a6.61333333 6.61333333 0 1 1 11.9701056 5.62683626 6.61333333 6.61333333 0 1 1-11.9701056-5.62683626ZM756.16751573 551.40658027a6.61333333 6.61333333 0 1 1 11.9701056 5.62683626 6.61333333 6.61333333 0 1 1-11.9701056-5.62683626ZM756.78167253 551.0017738700001a6.61333333 6.61333333 0 1 1 11.9701056 5.62683626 6.61333333 6.61333333 0 1 1-11.9701056-5.62683626ZM757.2988416 550.55148907a6.61333333 6.61333333 0 1 1 11.9701056 5.62683626 6.61333333 6.61333333 0 1 1-11.9701056-5.62683626ZM757.9584768 550.049696a6.61333333 6.61333333 0 1 1 11.9701056 5.62683627 6.61333333 6.61333333 0 1 1-11.9701056-5.62683627ZM758.47564693 549.59941013a6.61333333 6.61333333 0 1 1 11.97010454 5.62683627 6.61333333 6.61333333 0 1 1-11.97010454-5.62683627ZM759.1351808 549.0980704a6.61333333 6.61333333 0 1 1 11.9701056 5.62683627 6.61333333 6.61333333 0 1 1-11.9701056-5.62683627ZM759.6524512 548.6473312a6.61333333 6.61333333 0 1 1 11.9701056 5.62683627 6.61333333 6.61333333 0 1 1-11.9701056-5.62683627ZM760.21545173 548.1006144a6.61333333 6.61333333 0 1 1 11.9701056 5.62683627 6.61333333 6.61333333 0 1 1-11.9701056-5.62683627ZM760.82970987 547.6953546699999a6.61333333 6.61333333 0 1 1 11.9701056 5.62683626 6.61333333 6.61333333 0 1 1-11.9701056-5.62683626ZM761.39225707 547.1485354700001a6.61333333 6.61333333 0 1 1 11.9701056 5.62683626 6.61333333 6.61333333 0 1 1-11.9701056-5.62683626ZM762.00641387 546.74372907a6.61333333 6.61333333 0 1 1 11.9701056 5.62683626 6.61333333 6.61333333 0 1 1-11.9701056-5.62683626ZM762.52358293 546.29344427a6.61333333 6.61333333 0 1 1 11.9701056 5.62683626 6.61333333 6.61333333 0 1 1-11.9701056-5.62683626ZM763.1831168 545.79210453a6.61333333 6.61333333 0 1 1 11.9701056 5.62683627 6.61333333 6.61333333 0 1 1-11.9701056-5.62683627ZM763.70028587 545.3418186700001a6.61333333 6.61333333 0 1 1 11.9701056 5.62683626 6.61333333 6.61333333 0 1 1-11.9701056-5.62683626ZM764.2633888 544.79464853a6.61333333 6.61333333 0 1 1 11.9701056 5.62683627 6.61333333 6.61333333 0 1 1-11.9701056-5.62683627ZM764.8770912 544.3897408a6.61333333 6.61333333 0 1 1 11.9701056 5.62683627 6.61333333 6.61333333 0 1 1-11.9701056-5.62683627ZM765.44019307 543.8425695999999a6.61333333 6.61333333 0 1 1 11.9701056 5.62683627 6.61333333 6.61333333 0 1 1-11.9701056-5.62683627ZM766.05389653 543.43766187a6.61333333 6.61333333 0 1 1 11.9701056 5.62683626 6.61333333 6.61333333 0 1 1-11.9701056-5.62683626ZM766.61689707 542.89094507a6.61333333 6.61333333 0 1 1 11.9701056 5.6268352 6.61333333 6.61333333 0 1 1-11.9701056-5.6268352ZM767.2307008 542.48558293a6.61333333 6.61333333 0 1 1 11.9701056 5.62683627 6.61333333 6.61333333 0 1 1-11.9701056-5.62683627ZM767.74832427 542.03539947a6.61333333 6.61333333 0 1 1 11.9701056 5.62683626 6.61333333 6.61333333 0 1 1-11.9701056-5.62683626ZM768.3113248 541.4886816000001a6.61333333 6.61333333 0 1 1 11.9701056 5.62683627 6.61333333 6.61333333 0 1 1-11.9701056-5.62683627ZM768.9250272 541.08377387a6.61333333 6.61333333 0 1 1 11.9701056 5.62683626 6.61333333 6.61333333 0 1 1-11.9701056-5.62683626ZM769.48813013 540.53660373a6.61333333 6.61333333 0 1 1 11.9701056 5.6268352 6.61333333 6.61333333 0 1 1-11.9701056-5.6268352ZM770.10183253 540.1316959999999a6.61333333 6.61333333 0 1 1 11.9701056 5.6268352 6.61333333 6.61333333 0 1 1-11.9701056-5.6268352ZM770.66483307 539.5849781300001a6.61333333 6.61333333 0 1 1 11.9701056 5.62683627 6.61333333 6.61333333 0 1 1-11.9701056-5.62683627ZM771.1820032 539.13469333a6.61333333 6.61333333 0 1 1 11.9701056 5.62683627 6.61333333 6.61333333 0 1 1-11.9701056-5.62683627ZM771.841184 538.63279893a6.61333333 6.61333333 0 1 1 11.9701056 5.6268352 6.61333333 6.61333333 0 1 1-11.9701056-5.6268352ZM772.35926187 538.1827157299999a6.61333333 6.61333333 0 1 1 11.9701056 5.62683627 6.61333333 6.61333333 0 1 1-11.9701056-5.62683627ZM772.97296427 537.777808a6.61333333 6.61333333 0 1 1 11.9701056 5.62683627 6.61333333 6.61333333 0 1 1-11.9701056-5.62683627ZM773.53606613 537.2306368a6.61333333 6.61333333 0 1 1 11.9701056 5.62683627 6.61333333 6.61333333 0 1 1-11.9701056-5.62683627ZM774.14976853 536.8257290700001a6.61333333 6.61333333 0 1 1 11.9701056 5.62683626 6.61333333 6.61333333 0 1 1-11.9701056-5.62683626ZM774.71277013 536.2790122700001a6.61333333 6.61333333 0 1 1 11.9701056 5.62683626 6.61333333 6.61333333 0 1 1-11.9701056-5.62683626ZM775.23004053 535.82827307a6.61333333 6.61333333 0 1 1 11.9701056 5.62683626 6.61333333 6.61333333 0 1 1-11.9701056-5.62683626ZM775.8895744 535.32693333a6.61333333 6.61333333 0 1 1 11.9701056 5.62683627 6.61333333 6.61333333 0 1 1-11.9701056-5.62683627ZM776.40674453 534.87664853a6.61333333 6.61333333 0 1 1 11.9701056 5.6268352 6.61333333 6.61333333 0 1 1-11.9701056-5.6268352ZM777.065824 534.3752074700001a6.61333333 6.61333333 0 1 1 11.9701056 5.62683626 6.61333333 6.61333333 0 1 1-11.9701056-5.62683626ZM777.5835488 533.9245696a6.61333333 6.61333333 0 1 1 11.9701056 5.62683627 6.61333333 6.61333333 0 1 1-11.9701056-5.62683627ZM778.1977056 533.5197631999999a6.61333333 6.61333333 0 1 1 11.9701056 5.62683627 6.61333333 6.61333333 0 1 1-11.9701056-5.62683627ZM778.76070613 532.9730463999999a6.61333333 6.61333333 0 1 1 11.9701056 5.6268352 6.61333333 6.61333333 0 1 1-11.9701056-5.6268352ZM779.2779776 532.5223072a6.61333333 6.61333333 0 1 1 11.9701056 5.6268352 6.61333333 6.61333333 0 1 1-11.9701056-5.6268352ZM779.93751147 532.02096747a6.61333333 6.61333333 0 1 1 11.9701056 5.62683626 6.61333333 6.61333333 0 1 1-11.9701056-5.62683626ZM780.45468053 531.5706816a6.61333333 6.61333333 0 1 1 11.9701056 5.62683627 6.61333333 6.61333333 0 1 1-11.9701056-5.62683627ZM199.57333333 166.50666666999996c-1.92 0-3.73333333 0.85333333-4.8 2.56-28.05333333 41.06666667-32.64 88.42666667-12.8 133.54666666 19.30666667 43.94666667 59.09333333 78.61333333 105.49333334 93.54666667 14.29333333 27.94666667 38.93333333 51.62666667 73.6 70.50666667 35.84 19.62666667 73.92 29.44 99.52 34.24 3.2 0.64 6.29333333-1.49333333 6.82666666-4.69333334 0.64-3.2-1.49333333-6.29333333-4.69333333-6.82666666-24.74666667-4.69333333-61.54666667-14.18666667-96.10666667-32.96-28.37333333-15.46666667-49.6-34.24-63.25333333-56 3.84 0.85333333 7.78666667 1.6 11.73333333 2.13333333 17.17333333 2.45333333 36.16-0.42666667 53.54666667-8 18.13333333-8 32.74666667-20.48 41.28-35.2 10.88-18.88 11.94666667-43.2 2.88-63.46666667-8.85333333-19.73333333-26.98666667-35.09333333-48.32-41.17333333-13.76-3.84-28.16-3.62666667-40.42666667 0.74666667-18.77333333 6.61333333-33.06666667 20.69333333-41.38666666 40.85333333-10.45333333 25.17333333-10.77333333 57.92-1.49333334 85.22666667-39.04-15.36-71.89333333-45.86666667-88.53333333-83.62666667-18.13333333-41.28-13.97333333-84.69333333 11.73333333-122.24 1.81333333-2.66666667 1.17333333-6.29333333-1.49333333-8.10666667-0.96-0.74666667-2.13333333-1.06666667-3.30666667-1.06666666z m96.21333334 219.94666666c-11.62666667-25.70666667-12.58666667-60.69333333-2.24-85.65333333 7.14666667-17.17333333 18.77333333-28.69333333 34.45333333-34.24 10.13333333-3.52 21.97333333-3.73333333 33.38666667-0.53333333 18.02666667 5.12 33.28 18.02666667 40.74666666 34.66666666 7.57333333 16.85333333 6.72 37.12-2.34666666 52.8-14.72 25.6-51.2 42.02666667-83.09333334 37.54666667-6.93333333-1.17333333-13.97333333-2.66666667-20.90666666-4.58666667z"  horiz-adv-x="1024" />

    
    <glyph glyph-name="zhaopian1" unicode="&#58951;" d="M927.567 832H96c-53.015 0-96-42.95-96-95.934v-703.134c0-52.99 42.98-95.938 96-95.938h831.563c53.025 0 96.005 42.954 96.005 95.938V736.066c0.005 52.979-42.98 95.934-96 95.934z m-831.59-63.928h831.625c17.666-0.006 31.988-14.319 31.994-31.972V359.62c-51.55 42.26-140.914 99.248-248.123 99.248-98.845 0-196.298-76.548-290.536-150.562-72.203-56.706-146.878-115.37-199.265-115.37-73.48 0-136.393 53.994-157.711 74.59V736.089c0.011 17.664 14.34 31.977 32.016 31.983z m831.63-767.15H95.978c-17.672 0-32 14.312-32.005 31.972V184.637c38.362-27.156 93.823-55.658 157.716-55.658 74.525 0 154.328 62.672 238.812 129.038 85.683 67.292 174.282 136.887 250.983 136.887 137.488 0 246.537-120.936 247.614-122.165l0.51 0.45v-240.295c-0.011-17.66-14.333-31.968-32-31.972zM265.38 393.548c-71.124 0-128.786 57.62-128.786 128.697 0 71.08 57.662 128.702 128.786 128.702 71.125 0 128.791-57.621 128.791-128.702 0-71.077-57.666-128.697-128.791-128.697z m0.477 193.134c-35.405 0-64.112-28.686-64.112-64.078 0-35.387 28.707-64.075 64.112-64.075 35.412 0 64.124 28.688 64.124 64.075 0 35.392-28.702 64.078-64.124 64.078z"  horiz-adv-x="1024" />

    
    <glyph glyph-name="fenlei" unicode="&#58882;" d="M261.832 857.71c61.726 0 117.527-25.014 158.033-65.467l1.418-1.467a222.791 222.791 0 0 0 64.047-156.564v-198.958c0-13.603-11.028-24.635-24.63-24.635H261.881a222.644 222.644 0 0 0-157.982 65.515v0.05l-0.096-0.05A222.844 222.844 0 0 0 38.29 634.212c0 61.629 25.014 117.576 65.465 158.031A222.932 222.932 0 0 0 261.832 857.71z m123.165-100.283a173.71 173.71 0 0 1-123.165 50.968 173.728 173.728 0 0 1-123.26-50.968 173.726 173.726 0 0 1-50.968-123.214c0-48.176 19.422-91.709 50.968-123.26v-0.045a173.885 173.885 0 0 1 123.31-50.923h174.183V634.212c0 47.512-18.946 90.574-49.738 122.026l-1.233 1.188h-0.097z m284.704-424.731c0 13.549 11.08 24.635 24.678 24.635h67.789c61.77 0 117.621-25.016 158.076-65.469l1.418-1.465a222.835 222.835 0 0 0 64.049-156.609 222.652 222.652 0 0 0-65.467-157.941 222.737 222.737 0 0 0-158.076-65.557 222.655 222.655 0 0 0-157.938 65.465 222.423 222.423 0 0 0-65.561 158.033V332.745c0.809 13.012 11.598 23.152 24.635 23.152 13.033 0 23.826-10.141 24.631-23.152v-198.957c0-48.082 19.516-91.664 51.018-123.166a173.672 173.672 0 0 1 123.215-51.02 174.08 174.08 0 0 1 123.223 50.971 174.094 174.094 0 0 1 51.006 123.215 173.84 173.84 0 0 1-49.74 122.072l-1.23 1.188a173.661 173.661 0 0 1-123.258 50.967h-67.742a24.682 24.682 0 0 0-17.484 7.213 24.688 24.688 0 0 0-7.242 17.468zM261.832-40.39700000000005a174.078 174.078 0 0 1 174.182 174.185V308.015H261.881a173.716 173.716 0 0 1-123.26-50.967 173.717 173.717 0 0 1-50.973-123.26c0-48.082 19.422-91.664 50.973-123.166l1.184-1.277a173.79 173.79 0 0 1 122.076-49.742h-0.049zM419.77-24.289999999999964a222.65 222.65 0 0 0-157.938-65.42 222.838 222.838 0 0 0-156.608 64.092l-1.469 1.373A222.84 222.84 0 0 0 38.29 133.788c0 61.676 25.014 117.666 65.465 158.074a222.935 222.935 0 0 0 158.077 65.469H460.7c13.602 0 24.63-11.027 24.63-24.635v-198.908a222.646 222.646 0 0 0-65.465-157.941l-0.095-0.092v-0.045zM762.117 808.444a173.706 173.706 0 0 1-123.164-50.973 173.706 173.706 0 0 1-51.018-123.209V460.03h174.182a174.08 174.08 0 0 1 123.242 50.99 174.077 174.077 0 0 1 50.99 123.243 173.95 173.95 0 0 1-50.924 123.165h-0.049a173.707 173.707 0 0 1-123.259 51.016zM604.09 792.3389999999999A222.928 222.928 0 0 0 762.117 857.71c61.775 0 117.623-25.014 158.078-65.467l-0.047-0.048 0.047-0.096a222.59 222.59 0 0 0 65.516-157.887 222.654 222.654 0 0 0-65.467-157.983l-0.145-0.095a222.63 222.63 0 0 0-157.932-65.465H563.305c-13.607 0-24.635 11.028-24.635 24.63V634.212c0 61.629 25.014 117.621 65.465 158.031l-0.045 0.096z m0 0"  horiz-adv-x="1024" />

    
    <glyph glyph-name="Asset1" unicode="&#58881;" d="M566.192 844.056a76.944 76.944 0 0 1-103.392 0L44.72 447.072a38.568 38.568 0 0 1 51.648-57.288l6.648 6.312V-18.24000000000001a77.136 77.136 0 0 1 77.136-77.232h224.472v232.224a54.312 54.312 0 0 0 54.336 54.384h105.624a54.312 54.312 0 0 0 54.336-54.384v-232.224h229.8a77.136 77.136 0 0 1 77.16 77.232V391.032c17.136-15.504 41.448-14.328 55.704 1.56a38.568 38.568 0 0 1-2.784 54.48L566.192 844.032z"  horiz-adv-x="1024" />

    
    <glyph glyph-name="up" unicode="&#59416;" d="M482.261333 667.477333L57.130667 242.38933299999997a42.922667 42.922667 0 1 1 60.714666-60.714666l394.752 394.752 394.752-394.752a42.922667 42.922667 0 1 1 60.714667 60.714666l-425.130667 425.130667a42.922667 42.922667 0 0 1-60.672-0.042667z"  horiz-adv-x="1024" />

    
    <glyph glyph-name="down" unicode="&#59417;" d="M541.738667 100.52266699999996L966.869333 525.6106669999999a42.922667 42.922667 0 1 1-60.714666 60.714666l-394.752-394.752-394.752 394.752a42.922667 42.922667 0 1 1-60.714667-60.714666l425.130667-425.130667a42.922667 42.922667 0 0 1 60.672 0.042667z"  horiz-adv-x="1024" />

    
    <glyph glyph-name="sanjiao_up" unicode="&#59418;" d="M893.745 193.12800001000005L512 574.8720000000001l-381.745-381.745 763.49 0z"  horiz-adv-x="1024" />

    


  </font>
</defs>
</svg>
